           <!doctype html>
            <svg viewBox="-417.452 -9.524 1440 448.529" width="1440" height="448.529">
            <path fill="#1A1C20" fill-opacity="1" d="M -417.452 331.492 L -383.152 294.535 C -348.852 257.577 -280.452 183.663 -211.452 152.249 C -143.152 121.507 -74.452 134.946 -6.452 143.346 C 62.548 151.745 131.548 151.745 199.548 161.321 C 268.248 170.224 336.548 188.703 405.548 161.321 C 473.948 134.946 542.548 62.711 611.548 89.59 C 679.648 116.468 748.548 242.458 816.548 241.955 C 885.448 242.458 953.548 116.468 988.548 53.808 L 1022.548 -9.524 L 1022.548 439.005 L 988.248 439.005 C 953.948 439.005 885.548 439.005 816.548 439.005 C 748.248 439.005 679.548 439.005 611.548 439.005 C 542.548 439.005 473.548 439.005 405.548 439.005 C 336.848 439.005 268.548 439.005 199.548 439.005 C 131.148 439.005 62.548 439.005 -6.452 439.005 C -74.552 439.005 -143.452 439.005 -211.452 439.005 C -280.352 439.005 -348.452 439.005 -383.452 439.005 L -417.452 439.005 L -417.452 331.492 Z" style=""></path>
            </svg>